<?xml version="1.0" standalone="no"?>
<!DOCTYPE svg PUBLIC "-//W3C//DTD SVG 20010904//EN"
 "http://www.w3.org/TR/2001/REC-SVG-20010904/DTD/svg10.dtd">
<svg version="1.0" xmlns="http://www.w3.org/2000/svg"
 width="512.000000pt" height="512.000000pt" viewBox="0 0 512.000000 512.000000"
 preserveAspectRatio="xMidYMid meet">

<g transform="translate(0.000000,512.000000) scale(0.100000,-0.100000)"
fill="#000000" stroke="none">
<path d="M1580 4669 c-392 -50 -773 -217 -1050 -461 -264 -233 -431 -513 -502
-841 -31 -146 -31 -398 0 -544 40 -185 113 -353 226 -517 70 -104 245 -289
355 -378 42 -34 75 -66 75 -72 -1 -6 -36 -117 -78 -247 -42 -130 -76 -246 -76
-258 0 -12 12 -33 26 -48 20 -20 32 -24 57 -20 18 3 164 74 325 156 l294 151
86 -21 c166 -40 315 -60 492 -66 138 -4 184 -2 216 9 l42 15 33 -71 c137 -293
426 -563 750 -702 357 -152 730 -181 1111 -85 l108 27 231 -128 c254 -140 281
-149 318 -102 12 15 21 33 21 42 0 8 -27 106 -61 218 l-61 204 34 26 c71 57
276 274 330 350 118 166 204 369 229 543 15 105 6 274 -20 392 -88 394 -396
753 -812 948 -156 74 -366 133 -517 147 l-71 7 -17 71 c-154 638 -792 1150
-1562 1251 -122 16 -421 18 -532 4z m490 -160 c534 -66 1013 -342 1274 -734
71 -106 110 -185 151 -308 l34 -102 -122 -12 c-151 -16 -253 -35 -380 -74
-546 -166 -951 -594 -1032 -1089 -21 -130 -19 -303 4 -415 13 -65 15 -92 7
-98 -15 -11 -364 -1 -446 12 -36 6 -129 25 -207 42 l-142 30 -230 -116 c-127
-63 -231 -112 -231 -107 0 4 25 82 55 172 30 90 55 176 55 190 0 35 -12 49
-95 111 -337 253 -534 551 -591 894 -20 126 -14 330 15 457 92 402 384 754
800 963 185 92 378 152 578 180 121 16 389 19 503 4z m1792 -1348 c139 -30
263 -73 378 -131 356 -177 598 -458 692 -800 31 -113 33 -367 5 -470 -25 -90
-105 -255 -169 -347 -63 -92 -240 -278 -332 -348 -96 -74 -97 -80 -48 -243 22
-75 40 -137 39 -138 -1 -1 -72 38 -158 86 -86 48 -165 89 -177 92 -11 3 -51
-3 -89 -13 -169 -48 -291 -63 -483 -63 -153 0 -203 4 -290 23 -532 113 -916
440 -1057 897 -25 84 -27 100 -27 279 0 178 2 195 27 280 91 299 294 550 580
717 156 91 395 172 578 197 122 16 418 6 531 -18z"/>
<path d="M1120 3879 c-167 -75 -212 -282 -88 -410 57 -58 117 -83 203 -83 143
0 228 85 240 237 13 166 -86 277 -244 277 -45 0 -81 -7 -111 -21z"/>
<path d="M2415 3876 c-27 -12 -66 -41 -86 -63 -117 -129 -77 -304 87 -384 65
-31 170 -32 230 -1 61 31 109 90 124 152 31 131 -24 259 -132 304 -58 24 -163
21 -223 -8z"/>
<path d="M2995 2581 c-156 -71 -173 -283 -30 -380 43 -29 126 -39 180 -21 83
27 149 118 149 205 0 86 -48 155 -134 194 -56 25 -113 26 -165 2z"/>
<path d="M3940 2577 c-157 -83 -157 -305 0 -384 127 -65 291 26 307 170 7 59
-11 111 -56 160 -68 75 -169 97 -251 54z"/>
</g>
</svg>
